<?xml version="1.0" encoding="UTF-8" standalone="no"?>
<svg
   version="1.1"
   id="Layer_1"
   x="0px"
   y="0px"
   width="300"
   viewBox="0 0 300 300"
   enable-background="new 0 0 1024 1024"
   xml:space="preserve"
   sodipodi:docname="icon.svg"
   height="300"
   inkscape:version="1.3.2 (091e20e, 2023-11-25)"
   xmlns:inkscape="http://www.inkscape.org/namespaces/inkscape"
   xmlns:sodipodi="http://sodipodi.sourceforge.net/DTD/sodipodi-0.dtd"
   xmlns="http://www.w3.org/2000/svg"
   xmlns:svg="http://www.w3.org/2000/svg"><defs
   id="defs7" /><sodipodi:namedview
   id="namedview7"
   pagecolor="#ffffff"
   bordercolor="#000000"
   borderopacity="0.25"
   inkscape:showpageshadow="2"
   inkscape:pageopacity="0.0"
   inkscape:pagecheckerboard="0"
   inkscape:deskcolor="#d1d1d1"
   inkscape:zoom="0.70800781"
   inkscape:cx="509.88138"
   inkscape:cy="511.29379"
   inkscape:window-width="2048"
   inkscape:window-height="1387"
   inkscape:window-x="0"
   inkscape:window-y="25"
   inkscape:window-maximized="0"
   inkscape:current-layer="Layer_1" />
<path
   fill="#000000"
   opacity="1"
   stroke="none"
   d="m 217.05891,250.52833 c -9.21058,7.15027 -19.7903,10.80689 -30.20024,14.47614 -28.26523,9.96264 -55.65368,6.59887 -82.95955,-5.0683 C 82.002668,250.58021 66.091291,234.94838 53.148881,215.93165 46.527719,206.20289 42.584455,194.89851 39.214376,183.52058 34.304803,166.94508 33.547387,150.08494 36.442041,133.2154 38.528791,121.05424 43.637498,109.77546 49.131498,98.713204 56.86482,83.141976 68.211732,70.716073 82.151929,60.669411 99.81252,47.941353 119.25719,39.195931 141.2325,37.717538 c 20.21666,-1.360108 39.53056,2.514099 58.24984,10.643524 11.98626,5.205383 21.98911,12.846679 31.86539,20.981323 2.56906,2.115967 3.26448,3.611481 0.45696,6.302704 -8.53586,8.182281 -16.8774,16.572418 -25.13053,25.041471 -2.59141,2.65912 -4.70286,2.48944 -7.2351,0.17813 -18.05683,-16.481228 -39.63273,-21.22128 -62.84716,-16.485928 -12.30733,2.510528 -24.65758,6.837463 -33.26675,17.517028 -3.11348,3.86212 -7.808299,6.58969 -10.406314,10.70349 -12.949845,20.50547 -16.568184,42.49192 -8.473984,65.74253 4.040665,11.60681 10.705628,21.32367 20.079218,29.7168 20.97307,18.77917 45.00588,20.90673 70.6701,14.30804 12.86926,-3.30896 22.78601,-11.71521 31.12585,-21.97168 -1.44031,-2.1933 -3.46265,-1.37744 -5.12413,-1.38721 -14.49661,-0.0853 -28.99391,-0.0439 -43.49087,-0.0834 -5.8987,-0.0161 -6.71312,-0.80451 -6.73822,-6.60541 -0.0476,-10.99756 0.0582,-21.99634 -0.0634,-32.9928 -0.0465,-4.20868 1.60574,-6.01208 5.91824,-6.00268 35.15937,0.0766 70.31903,0.0738 105.4784,-0.005 4.42019,-0.01 6.31033,1.64932 6.29834,6.194 -0.0928,35.1593 -0.0939,70.31897 -0.0106,105.47833 0.0101,4.26868 -1.63547,6.02814 -5.90366,5.98261 -10.99641,-0.11738 -21.99568,-0.0938 -32.99251,0.0107 -4.49396,0.0427 -6.19191,-1.75049 -5.86387,-6.36261 0.39549,-5.56079 0.0937,-11.17121 0.0937,-16.61011 -3.38443,-0.74512 -4.68719,1.46692 -6.86241,2.51721 z"
   id="path1"
   style="fill:#ffffff;fill-opacity:1" />






</svg>
